<svg id="epcoL3EdiJm1" xmlns="http://www.w3.org/2000/svg" xmlns:xlink="http://www.w3.org/1999/xlink" viewBox="0 0 100 100" shape-rendering="geometricPrecision" text-rendering="geometricPrecision"><g><path d="M50.867,11.218C29.488,11.218,12.085,28.624,12.085,50c0,21.379,17.403,38.782,38.782,38.782c21.378,0,38.782-17.403,38.782-38.782c0-21.376-17.404-38.782-38.782-38.782ZM59.03,50c0,4.512-3.651,8.166-8.163,8.166-4.513,0-8.164-3.654-8.164-8.166s3.651-8.164,8.164-8.164c4.512,0,8.163,3.652,8.163,8.164ZM21.958,40.352c3.209-12.311,14.037-20.821,26.441-22.115c3.391-.354,3.355,4.938,0,5.288-10.062,1.051-18.767,8.354-21.342,18.231-.86,3.299-5.959,1.898-5.099-1.404ZM50.867,82.338c-14.753,0-27.25-10.078-31.131-23.483-.005-.041-.005-.066-.011-.11-.73-5.348,2.198-5.521,2.492-5.521h12.573c.682.279,1.739,1.141,3.146,3.488c2.451,4.646,7.264,7.899,12.822,7.899c5.373,0,10.184-3.034,12.713-7.429.025-.044.046-.069.073-.115c1.517-2.633,2.644-3.551,3.36-3.844h12.608c.294,0,3.223.174,2.493,5.521-.008.044-.008.069-.012.11C78.114,72.26,65.62,82.338,50.867,82.338Z"/></g></svg>
